# xmcd
#
# Track frame offsets:
#	150
#	16780
#	29935
#	41734
#	54135
#	69751
#	81392
#	96072
#	113161
#	126834
#	142503
#	156237
#	169035
#	185665
#
# Disc length: 2613 seconds
#
# Revision: 1
# Processed by: cddbd v1.5.2PL0 Copyright (c) Steve Scherf et al.
# Submitted via: audiograbber 1.83.01
#
DISCID=b10a330e
DTITLE=Charley Pride - Music in My Heart
DYEAR=2019
DGENRE=Country
TTITLE0=Standing In My Way [Radio Mix]
TTITLE1=New Patches
TTITLE2=Make Me One More Memory
TTITLE3=Natural Feeling for You
TTITLE4=All by My Lonesome
TTITLE5=It Wasn't That Funny
TTITLE6=The Same Eyes That Always Drove Me Crazy
TTITLE7=I Learned a Lot
TTITLE8=You're Still in These Crazy Arms of Mine
TTITLE9=The Way It Was in '51
TTITLE10=I Just Can't Stop Missing You
TTITLE11=You Lied to Me
TTITLE12=Standing in My Way
TTITLE13=Music in My Heart
EXTD=
EXTT0=
EXTT1=
EXTT2=
EXTT3=
EXTT4=
EXTT5=
EXTT6=
EXTT7=
EXTT8=
EXTT9=
EXTT10=
EXTT11=
EXTT12=
EXTT13=
PLAYORDER=
